<?xml version="1.0" encoding="UTF-8"?>
<svg width="26px" height="26px" viewBox="0 0 26 26" version="1.1" xmlns="http://www.w3.org/2000/svg" xmlns:xlink="http://www.w3.org/1999/xlink">
    <title>ic_小i@1x</title>
    <g id="页面-1" stroke="none" stroke-width="1" fill="none" fill-rule="evenodd">
        <g id="切图" transform="translate(-392.000000, -76.000000)" fill="#808080" fill-rule="nonzero">
            <g id="icon_小i" transform="translate(392.000000, 76.000000)">
                <path d="M13,1 C19.627417,1 25,6.372583 25,13 C25,19.627417 19.627417,25 13,25 C6.372583,25 1,19.627417 1,13 C1,6.372583 6.372583,1 13,1 Z M13,3 C7.4771525,3 3,7.4771525 3,13 C3,18.5228475 7.4771525,23 13,23 C18.5228475,23 23,18.5228475 23,13 C23,7.4771525 18.5228475,3 13,3 Z M12.1081081,19.0540541 C11.4583405,19.0540541 10.9315999,18.5273134 10.9315999,17.8775458 C10.9315999,17.8118871 10.9370963,17.7463437 10.9480315,17.681602 L11.705,13.202 L11.1081081,13.2027027 C10.7797226,13.2027027 10.5135135,12.9364936 10.5135135,12.6081081 C10.5135135,12.2797226 10.7797226,12.0135135 11.1081081,12.0135135 L13.2972973,12.0135135 C13.9470649,12.0135135 14.4738055,12.5402542 14.4738055,13.1900218 C14.4738055,13.2556804 14.4683091,13.3212239 14.4573739,13.3859656 L13.701,17.864 L14.2972973,17.8648649 C14.6256828,17.8648649 14.8918919,18.1310739 14.8918919,18.4594595 C14.8918919,18.787845 14.6256828,19.0540541 14.2972973,19.0540541 L12.1081081,19.0540541 Z M13,7 C13.8284271,7 14.5,7.67157288 14.5,8.5 C14.5,9.32842712 13.8284271,10 13,10 C12.1715729,10 11.5,9.32842712 11.5,8.5 C11.5,7.67157288 12.1715729,7 13,7 Z" id="形状"></path>
            </g>
        </g>
    </g>
</svg>